{"title":"Amal (2007) 1080p Webrip x264 AC3 5.1 ESub -DDR","uid":15795033,"size":3523763064,"categoryP":"video","categoryS":"hd___movies","magnet":"?xt=urn:btih:5f530728e9e3c7b051f667c01d89df7e3335f28e&amp;dn=Amal+%282007%29+1080p+Webrip+x264+AC3+5.1+ESub+-DDR&amp;tr=udp%3A%2F%2Ftracker.leechers-paradise.org%3A6969&amp;tr=udp%3A%2F%2Fzer0day.ch%3A1337&amp;tr=udp%3A%2F%2Fopen.demonii.com%3A1337&amp;tr=udp%3A%2F%2Ftracker.coppersurfer.tk%3A6969&amp;tr=udp%3A%2F%2Fexodus.desync.com%3A6969","seeders":12,"leechers":18,"uploader":"SaM","files":2,"time":1473446607,"description":"** AMAL **\r\n\r\n1080p WebRip x264\r\n\r\nHindi AC3 5.1 Audio\r\n\r\n\r\n\r\nEnglish Subtitle\r\n\r\nSynopsis:\r\n\r\nIMDB http://www.imdb.com/title/tt0907674/\r\n\r\nAutorickshaw driver Amal is content with the small, but vital, role he serves - driving customers around New Delhi as quickly and safely as possible. But his sense of duty is tested by an eccentric, aging billionaire, who, moved by Amal's humility, bequeaths him his entire estate before passing away. With only one month to discover and claim the inheritance, Amal's struggles with duty and wealth are threatened by all those around him - from a young injured beggar girl and a lovely store merchant, to the danger of the old man's upper-caste friends and siblings, all seeking to claim their share of the riches.\r\n\r\nAWARDS\r\nGenie Awards 2009\r\nSan Francisco International Asian American Film Festival 2008\r\nSanta Barbara International Film Festival 2008\r\nScottsdale International Film Festival 2008\r\nWhistler Film Festival 2007\r\n\r\n\r\n\r\n{ SCREENSHOTS }\r\n \nhttp://extraimago.com/image/wmFj \nhttp://extraimago.com/image/wmFT \nhttp://extraimago.com/image/wmFN \nhttp://extraimago.com/image/wmF2 \nhttp://extraimago.com/image/wmDW \nhttp://extraimago.com/image/wmDA \nhttp://extraimago.com/image/wmDv \nhttp://extraimago.com/image/wmDu \nhttp://extraimago.com/image/wmDV \nhttp://extraimago.com/image/wmD6 \nhttp://extraimago.com/image/wmDx \nhttp://extraimago.com/image/wmDt \nhttp://extraimago.com/image/wmDo \nhttp://extraimago.com/image/wmDk\r\n\r\nSpecs:\r\nSource: Netflix Rip @ DDR\r\n\r\nFormat : Matroska\r\nFormat version : Version 4 / Version 2\r\nFile size : 3.25 GiB\r\nDuration : 1 h 40 min\r\nOverall bit rate : 4 632 kb/s\r\n\r\n\r\nVideo\r\nID : 1\r\nFormat : AVC\r\nFormat/Info : Advanced Video Codec\r\nFormat profile :   \r\nFormat settings, CABAC : Yes\r\nFormat settings, ReFrames : 4 frames\r\nCodec ID : V_MPEG4/ISO/AVC\r\nDuration : 1 h 40 min\r\nBit rate : 3 990 kb/s\r\nWidth : 1 920 pixels\r\nHeight : 1 080 pixels\r\nDisplay aspect ratio : 16:9\r\nFrame rate mode : Constant\r\nFrame rate : 24.000 FPS\r\nColor space : YUV\r\nChroma subsampling : 4:2:0\r\nBit depth : 8 bits\r\nScan type : Progressive\r\nBits/(Pixel*Frame) : 0.080\r\nStream size : 2.80 GiB (86%)\r\nDefault : Yes\r\nForced : No\r\nColor range : Limited\r\nColor primaries : BT.709\r\n\r\n\r\nAudio\r\nID : 2\r\nFormat : AC-3\r\nFormat/Info : Audio Coding 3\r\nMode extension : CM (complete main)\r\nFormat settings, Endianness : Big\r\nCodec ID : A_AC3\r\nDuration : 1 h 40 min\r\nBit rate mode : Constant\r\nBit rate : 640 kb/s\r\nChannel(s) : 6 channels\r\nChannel positions : Front: L C R, Side: L R, LFE\r\nSampling rate : 48.0 kHz\r\nFrame rate : 31.250 FPS (1536 spf)\r\nCompression mode : Lossy\r\nDelay relative to video : 24 ms\r\nStream size : 460 MiB (14%)\r\nLanguage : Hindi\r\nDefault : Yes\r\nForced : No\r\n\r\n\r\n\r\nSAMPLE Included","torrent":{"xt":"urn:btih:5f530728e9e3c7b051f667c01d89df7e3335f28e","amp;dn":"Amal+%282007%29+1080p+Webrip+x264+AC3+5.1+ESub+-DDR","amp;tr":["udp%3A%2F%2Ftracker.leechers-paradise.org%3A6969","udp%3A%2F%2Fzer0day.ch%3A1337","udp%3A%2F%2Fopen.demonii.com%3A1337","udp%3A%2F%2Ftracker.coppersurfer.tk%3A6969","udp%3A%2F%2Fexodus.desync.com%3A6969"],"infoHash":"5f530728e9e3c7b051f667c01d89df7e3335f28e","infoHashBuffer":{"type":"Buffer","data":[95,83,7,40,233,227,199,176,81,246,103,192,29,137,223,126,51,53,242,142]},"announce":[],"urlList":[]}}